{
	"patcher" : 	{
		"fileversion" : 1,
		"rect" : [ -9.0, 120.0, 1440.0, 826.0 ],
		"bglocked" : 0,
		"defrect" : [ -9.0, 120.0, 1440.0, 826.0 ],
		"openrect" : [ 0.0, 0.0, 0.0, 0.0 ],
		"openinpresentation" : 0,
		"default_fontsize" : 12.0,
		"default_fontface" : 0,
		"default_fontname" : "Arial",
		"gridonopen" : 0,
		"gridsize" : [ 15.0, 15.0 ],
		"gridsnaponopen" : 0,
		"toolbarvisible" : 1,
		"boxanimatetime" : 200,
		"imprint" : 0,
		"enablehscroll" : 1,
		"enablevscroll" : 1,
		"devicewidth" : 0.0,
		"boxes" : [ 			{
				"box" : 				{
					"maxclass" : "newobj",
					"text" : "p scales",
					"id" : "obj-166",
					"fontname" : "Arial",
					"numinlets" : 1,
					"patching_rect" : [ 516.363647, 745.454529, 55.0, 20.0 ],
					"fontsize" : 12.0,
					"numoutlets" : 1,
					"outlettype" : [ "int" ],
					"patcher" : 					{
						"fileversion" : 1,
						"rect" : [ 0.0, 44.0, 1440.0, 826.0 ],
						"bglocked" : 0,
						"defrect" : [ 0.0, 44.0, 1440.0, 826.0 ],
						"openrect" : [ 0.0, 0.0, 0.0, 0.0 ],
						"openinpresentation" : 0,
						"default_fontsize" : 12.0,
						"default_fontface" : 0,
						"default_fontname" : "Arial",
						"gridonopen" : 0,
						"gridsize" : [ 15.0, 15.0 ],
						"gridsnaponopen" : 0,
						"toolbarvisible" : 1,
						"boxanimatetime" : 200,
						"imprint" : 0,
						"enablehscroll" : 1,
						"enablevscroll" : 1,
						"devicewidth" : 0.0,
						"visible" : 1,
						"boxes" : [ 							{
								"box" : 								{
									"maxclass" : "newobj",
									"text" : "+ 1",
									"id" : "obj-72",
									"fontname" : "Arial",
									"numinlets" : 2,
									"patching_rect" : [ 685.0, 39.0, 32.5, 20.0 ],
									"fontsize" : 12.0,
									"numoutlets" : 1,
									"outlettype" : [ "int" ]
								}

							}
, 							{
								"box" : 								{
									"maxclass" : "newobj",
									"text" : "t i",
									"id" : "obj-62",
									"fontname" : "Arial",
									"presentation_rect" : [ 633.0, 445.0, 0.0, 0.0 ],
									"numinlets" : 1,
									"patching_rect" : [ 633.0, 445.0, 20.0, 20.0 ],
									"fontsize" : 12.0,
									"numoutlets" : 1,
									"outlettype" : [ "int" ]
								}

							}
, 							{
								"box" : 								{
									"maxclass" : "message",
									"text" : "11",
									"id" : "obj-63",
									"fontname" : "Arial",
									"presentation_rect" : [ 738.0, 409.0, 0.0, 0.0 ],
									"numinlets" : 2,
									"patching_rect" : [ 738.0, 409.0, 24.5, 18.0 ],
									"fontsize" : 12.0,
									"numoutlets" : 1,
									"outlettype" : [ "" ]
								}

							}
, 							{
								"box" : 								{
									"maxclass" : "message",
									"text" : "9",
									"id" : "obj-64",
									"fontname" : "Arial",
									"presentation_rect" : [ 707.0, 409.0, 0.0, 0.0 ],
									"numinlets" : 2,
									"patching_rect" : [ 707.0, 409.0, 24.5, 18.0 ],
									"fontsize" : 12.0,
									"numoutlets" : 1,
									"outlettype" : [ "" ]
								}

							}
, 							{
								"box" : 								{
									"maxclass" : "message",
									"text" : "8",
									"id" : "obj-65",
									"fontname" : "Arial",
									"presentation_rect" : [ 676.0, 409.0, 0.0, 0.0 ],
									"numinlets" : 2,
									"patching_rect" : [ 676.0, 409.0, 24.5, 18.0 ],
									"fontsize" : 12.0,
									"numoutlets" : 1,
									"outlettype" : [ "" ]
								}

							}
, 							{
								"box" : 								{
									"maxclass" : "message",
									"text" : "7",
									"id" : "obj-66",
									"fontname" : "Arial",
									"presentation_rect" : [ 646.0, 409.0, 0.0, 0.0 ],
									"numinlets" : 2,
									"patching_rect" : [ 646.0, 409.0, 24.5, 18.0 ],
									"fontsize" : 12.0,
									"numoutlets" : 1,
									"outlettype" : [ "" ]
								}

							}
, 							{
								"box" : 								{
									"maxclass" : "message",
									"text" : "5",
									"id" : "obj-67",
									"fontname" : "Arial",
									"presentation_rect" : [ 616.0, 409.0, 0.0, 0.0 ],
									"numinlets" : 2,
									"patching_rect" : [ 616.0, 409.0, 24.5, 18.0 ],
									"fontsize" : 12.0,
									"numoutlets" : 1,
									"outlettype" : [ "" ]
								}

							}
, 							{
								"box" : 								{
									"maxclass" : "message",
									"text" : "4",
									"id" : "obj-68",
									"fontname" : "Arial",
									"presentation_rect" : [ 585.0, 409.0, 0.0, 0.0 ],
									"numinlets" : 2,
									"patching_rect" : [ 585.0, 409.0, 24.5, 18.0 ],
									"fontsize" : 12.0,
									"numoutlets" : 1,
									"outlettype" : [ "" ]
								}

							}
, 							{
								"box" : 								{
									"maxclass" : "message",
									"text" : "2",
									"id" : "obj-69",
									"fontname" : "Arial",
									"presentation_rect" : [ 555.0, 409.0, 0.0, 0.0 ],
									"numinlets" : 2,
									"patching_rect" : [ 555.0, 409.0, 24.5, 18.0 ],
									"fontsize" : 12.0,
									"numoutlets" : 1,
									"outlettype" : [ "" ]
								}

							}
, 							{
								"box" : 								{
									"maxclass" : "message",
									"text" : "0",
									"id" : "obj-70",
									"fontname" : "Arial",
									"presentation_rect" : [ 524.0, 409.0, 0.0, 0.0 ],
									"numinlets" : 2,
									"patching_rect" : [ 524.0, 409.0, 24.5, 18.0 ],
									"fontsize" : 12.0,
									"numoutlets" : 1,
									"outlettype" : [ "" ]
								}

							}
, 							{
								"box" : 								{
									"maxclass" : "newobj",
									"text" : "select 0 1 2 3 4 5 6 7",
									"id" : "obj-71",
									"fontname" : "Arial",
									"presentation_rect" : [ 524.0, 379.0, 0.0, 0.0 ],
									"numinlets" : 1,
									"patching_rect" : [ 524.0, 379.0, 263.0, 20.0 ],
									"fontsize" : 12.0,
									"numoutlets" : 9,
									"outlettype" : [ "bang", "bang", "bang", "bang", "bang", "bang", "bang", "bang", "" ]
								}

							}
, 							{
								"box" : 								{
									"maxclass" : "newobj",
									"text" : "t i",
									"id" : "obj-52",
									"fontname" : "Arial",
									"presentation_rect" : [ 356.0, 436.0, 0.0, 0.0 ],
									"numinlets" : 1,
									"patching_rect" : [ 356.0, 436.0, 20.0, 20.0 ],
									"fontsize" : 12.0,
									"numoutlets" : 1,
									"outlettype" : [ "int" ]
								}

							}
, 							{
								"box" : 								{
									"maxclass" : "message",
									"text" : "11",
									"id" : "obj-53",
									"fontname" : "Arial",
									"presentation_rect" : [ 461.0, 400.0, 0.0, 0.0 ],
									"numinlets" : 2,
									"patching_rect" : [ 461.0, 400.0, 24.5, 18.0 ],
									"fontsize" : 12.0,
									"numoutlets" : 1,
									"outlettype" : [ "" ]
								}

							}
, 							{
								"box" : 								{
									"maxclass" : "message",
									"text" : "9",
									"id" : "obj-54",
									"fontname" : "Arial",
									"presentation_rect" : [ 430.0, 400.0, 0.0, 0.0 ],
									"numinlets" : 2,
									"patching_rect" : [ 430.0, 400.0, 24.5, 18.0 ],
									"fontsize" : 12.0,
									"numoutlets" : 1,
									"outlettype" : [ "" ]
								}

							}
, 							{
								"box" : 								{
									"maxclass" : "message",
									"text" : "8",
									"id" : "obj-55",
									"fontname" : "Arial",
									"presentation_rect" : [ 399.0, 400.0, 0.0, 0.0 ],
									"numinlets" : 2,
									"patching_rect" : [ 399.0, 400.0, 24.5, 18.0 ],
									"fontsize" : 12.0,
									"numoutlets" : 1,
									"outlettype" : [ "" ]
								}

							}
, 							{
								"box" : 								{
									"maxclass" : "message",
									"text" : "7",
									"id" : "obj-56",
									"fontname" : "Arial",
									"presentation_rect" : [ 369.0, 400.0, 0.0, 0.0 ],
									"numinlets" : 2,
									"patching_rect" : [ 369.0, 400.0, 24.5, 18.0 ],
									"fontsize" : 12.0,
									"numoutlets" : 1,
									"outlettype" : [ "" ]
								}

							}
, 							{
								"box" : 								{
									"maxclass" : "message",
									"text" : "6",
									"id" : "obj-57",
									"fontname" : "Arial",
									"presentation_rect" : [ 339.0, 400.0, 0.0, 0.0 ],
									"numinlets" : 2,
									"patching_rect" : [ 339.0, 400.0, 32.5, 18.0 ],
									"fontsize" : 12.0,
									"numoutlets" : 1,
									"outlettype" : [ "" ]
								}

							}
, 							{
								"box" : 								{
									"maxclass" : "message",
									"text" : "4",
									"id" : "obj-58",
									"fontname" : "Arial",
									"presentation_rect" : [ 308.0, 400.0, 0.0, 0.0 ],
									"numinlets" : 2,
									"patching_rect" : [ 308.0, 400.0, 24.5, 18.0 ],
									"fontsize" : 12.0,
									"numoutlets" : 1,
									"outlettype" : [ "" ]
								}

							}
, 							{
								"box" : 								{
									"maxclass" : "message",
									"text" : "2",
									"id" : "obj-59",
									"fontname" : "Arial",
									"presentation_rect" : [ 278.0, 400.0, 0.0, 0.0 ],
									"numinlets" : 2,
									"patching_rect" : [ 278.0, 400.0, 24.5, 18.0 ],
									"fontsize" : 12.0,
									"numoutlets" : 1,
									"outlettype" : [ "" ]
								}

							}
, 							{
								"box" : 								{
									"maxclass" : "message",
									"text" : "0",
									"id" : "obj-60",
									"fontname" : "Arial",
									"presentation_rect" : [ 247.0, 400.0, 0.0, 0.0 ],
									"numinlets" : 2,
									"patching_rect" : [ 247.0, 400.0, 24.5, 18.0 ],
									"fontsize" : 12.0,
									"numoutlets" : 1,
									"outlettype" : [ "" ]
								}

							}
, 							{
								"box" : 								{
									"maxclass" : "newobj",
									"text" : "select 0 1 2 3 4 5 6 7",
									"id" : "obj-61",
									"fontname" : "Arial",
									"presentation_rect" : [ 247.0, 370.0, 0.0, 0.0 ],
									"numinlets" : 1,
									"patching_rect" : [ 247.0, 370.0, 263.0, 20.0 ],
									"fontsize" : 12.0,
									"numoutlets" : 9,
									"outlettype" : [ "bang", "bang", "bang", "bang", "bang", "bang", "bang", "bang", "" ]
								}

							}
, 							{
								"box" : 								{
									"maxclass" : "outlet",
									"id" : "obj-51",
									"numinlets" : 1,
									"patching_rect" : [ 153.0, 652.0, 25.0, 25.0 ],
									"numoutlets" : 0,
									"comment" : ""
								}

							}
, 							{
								"box" : 								{
									"maxclass" : "newobj",
									"text" : "t i",
									"id" : "obj-45",
									"fontname" : "Arial",
									"numinlets" : 1,
									"patching_rect" : [ 153.0, 364.0, 20.0, 20.0 ],
									"fontsize" : 12.0,
									"numoutlets" : 1,
									"outlettype" : [ "int" ]
								}

							}
, 							{
								"box" : 								{
									"maxclass" : "message",
									"text" : "11",
									"id" : "obj-42",
									"fontname" : "Arial",
									"numinlets" : 2,
									"patching_rect" : [ 258.0, 328.0, 24.5, 18.0 ],
									"fontsize" : 12.0,
									"numoutlets" : 1,
									"outlettype" : [ "" ]
								}

							}
, 							{
								"box" : 								{
									"maxclass" : "message",
									"text" : "9",
									"id" : "obj-40",
									"fontname" : "Arial",
									"numinlets" : 2,
									"patching_rect" : [ 227.0, 328.0, 24.5, 18.0 ],
									"fontsize" : 12.0,
									"numoutlets" : 1,
									"outlettype" : [ "" ]
								}

							}
, 							{
								"box" : 								{
									"maxclass" : "message",
									"text" : "8",
									"id" : "obj-38",
									"fontname" : "Arial",
									"numinlets" : 2,
									"patching_rect" : [ 196.0, 328.0, 24.5, 18.0 ],
									"fontsize" : 12.0,
									"numoutlets" : 1,
									"outlettype" : [ "" ]
								}

							}
, 							{
								"box" : 								{
									"maxclass" : "message",
									"text" : "7",
									"id" : "obj-36",
									"fontname" : "Arial",
									"numinlets" : 2,
									"patching_rect" : [ 166.0, 328.0, 24.5, 18.0 ],
									"fontsize" : 12.0,
									"numoutlets" : 1,
									"outlettype" : [ "" ]
								}

							}
, 							{
								"box" : 								{
									"maxclass" : "message",
									"text" : "5",
									"id" : "obj-32",
									"fontname" : "Arial",
									"numinlets" : 2,
									"patching_rect" : [ 136.0, 328.0, 24.5, 18.0 ],
									"fontsize" : 12.0,
									"numoutlets" : 1,
									"outlettype" : [ "" ]
								}

							}
, 							{
								"box" : 								{
									"maxclass" : "message",
									"text" : "4",
									"id" : "obj-30",
									"fontname" : "Arial",
									"numinlets" : 2,
									"patching_rect" : [ 105.0, 328.0, 24.5, 18.0 ],
									"fontsize" : 12.0,
									"numoutlets" : 1,
									"outlettype" : [ "" ]
								}

							}
, 							{
								"box" : 								{
									"maxclass" : "message",
									"text" : "2",
									"id" : "obj-28",
									"fontname" : "Arial",
									"numinlets" : 2,
									"patching_rect" : [ 75.0, 328.0, 24.5, 18.0 ],
									"fontsize" : 12.0,
									"numoutlets" : 1,
									"outlettype" : [ "" ]
								}

							}
, 							{
								"box" : 								{
									"maxclass" : "message",
									"text" : "0",
									"id" : "obj-26",
									"fontname" : "Arial",
									"numinlets" : 2,
									"patching_rect" : [ 44.0, 328.0, 24.5, 18.0 ],
									"fontsize" : 12.0,
									"numoutlets" : 1,
									"outlettype" : [ "" ]
								}

							}
, 							{
								"box" : 								{
									"maxclass" : "newobj",
									"text" : "select 0 1 2 3 4 5 6 7",
									"id" : "obj-24",
									"fontname" : "Arial",
									"numinlets" : 1,
									"patching_rect" : [ 44.0, 298.0, 263.0, 20.0 ],
									"fontsize" : 12.0,
									"numoutlets" : 9,
									"outlettype" : [ "bang", "bang", "bang", "bang", "bang", "bang", "bang", "bang", "" ]
								}

							}
, 							{
								"box" : 								{
									"maxclass" : "message",
									"text" : "1",
									"id" : "obj-17",
									"fontname" : "Arial",
									"numinlets" : 2,
									"patching_rect" : [ 545.0, 37.0, 32.5, 18.0 ],
									"fontsize" : 12.0,
									"numoutlets" : 1,
									"outlettype" : [ "" ]
								}

							}
, 							{
								"box" : 								{
									"maxclass" : "newobj",
									"text" : "pack",
									"id" : "obj-13",
									"fontname" : "Arial",
									"numinlets" : 2,
									"patching_rect" : [ 410.0, 170.0, 49.0, 20.0 ],
									"fontsize" : 12.0,
									"numoutlets" : 1,
									"outlettype" : [ "" ]
								}

							}
, 							{
								"box" : 								{
									"maxclass" : "newobj",
									"text" : "swap",
									"id" : "obj-12",
									"fontname" : "Arial",
									"numinlets" : 2,
									"patching_rect" : [ 410.0, 140.0, 49.0, 20.0 ],
									"fontsize" : 12.0,
									"numoutlets" : 2,
									"outlettype" : [ "int", "int" ]
								}

							}
, 							{
								"box" : 								{
									"maxclass" : "newobj",
									"text" : "unpack",
									"id" : "obj-11",
									"fontname" : "Arial",
									"numinlets" : 1,
									"patching_rect" : [ 410.0, 115.0, 49.0, 20.0 ],
									"fontsize" : 12.0,
									"numoutlets" : 2,
									"outlettype" : [ "int", "int" ]
								}

							}
, 							{
								"box" : 								{
									"maxclass" : "newobj",
									"text" : "route 1 2 3 4 5 6 7 8 9 10",
									"id" : "obj-8",
									"fontname" : "Arial",
									"numinlets" : 1,
									"patching_rect" : [ 410.0, 223.0, 488.0, 20.0 ],
									"fontsize" : 12.0,
									"numoutlets" : 11,
									"outlettype" : [ "", "", "", "", "", "", "", "", "", "", "" ]
								}

							}
, 							{
								"box" : 								{
									"maxclass" : "number",
									"id" : "obj-7",
									"fontname" : "Arial",
									"numinlets" : 1,
									"patching_rect" : [ 686.0, 67.0, 50.0, 20.0 ],
									"fontsize" : 12.0,
									"numoutlets" : 2,
									"outlettype" : [ "int", "bang" ]
								}

							}
, 							{
								"box" : 								{
									"maxclass" : "umenu",
									"id" : "obj-3",
									"fontname" : "Arial",
									"numinlets" : 1,
									"types" : [  ],
									"patching_rect" : [ 686.0, 11.0, 100.0, 20.0 ],
									"fontsize" : 12.0,
									"numoutlets" : 3,
									"items" : [ "Ionian", ",", "Lydian", ",", "Locrian", ",", "Phrygian", ",", "Aeolian", ",", "Dorian", ",", "MixoLydian" ],
									"outlettype" : [ "int", "", "" ]
								}

							}
, 							{
								"box" : 								{
									"maxclass" : "newobj",
									"text" : "pack 0 0",
									"id" : "obj-2",
									"fontname" : "Arial",
									"numinlets" : 2,
									"patching_rect" : [ 410.0, 91.0, 56.0, 20.0 ],
									"fontsize" : 12.0,
									"numoutlets" : 1,
									"outlettype" : [ "" ]
								}

							}
, 							{
								"box" : 								{
									"maxclass" : "inlet",
									"id" : "obj-1",
									"numinlets" : 0,
									"patching_rect" : [ 410.0, 22.0, 25.0, 25.0 ],
									"numoutlets" : 1,
									"outlettype" : [ "" ],
									"comment" : ""
								}

							}
 ],
						"lines" : [ 							{
								"patchline" : 								{
									"source" : [ "obj-72", 0 ],
									"destination" : [ "obj-7", 0 ],
									"hidden" : 0,
									"midpoints" : [  ]
								}

							}
, 							{
								"patchline" : 								{
									"source" : [ "obj-3", 0 ],
									"destination" : [ "obj-72", 0 ],
									"hidden" : 0,
									"midpoints" : [ 695.5, 34.5, 694.5, 34.5 ]
								}

							}
, 							{
								"patchline" : 								{
									"source" : [ "obj-52", 0 ],
									"destination" : [ "obj-51", 0 ],
									"hidden" : 0,
									"midpoints" : [  ]
								}

							}
, 							{
								"patchline" : 								{
									"source" : [ "obj-8", 1 ],
									"destination" : [ "obj-61", 0 ],
									"hidden" : 0,
									"midpoints" : [  ]
								}

							}
, 							{
								"patchline" : 								{
									"source" : [ "obj-63", 0 ],
									"destination" : [ "obj-62", 0 ],
									"hidden" : 0,
									"midpoints" : [  ]
								}

							}
, 							{
								"patchline" : 								{
									"source" : [ "obj-64", 0 ],
									"destination" : [ "obj-62", 0 ],
									"hidden" : 0,
									"midpoints" : [  ]
								}

							}
, 							{
								"patchline" : 								{
									"source" : [ "obj-65", 0 ],
									"destination" : [ "obj-62", 0 ],
									"hidden" : 0,
									"midpoints" : [  ]
								}

							}
, 							{
								"patchline" : 								{
									"source" : [ "obj-66", 0 ],
									"destination" : [ "obj-62", 0 ],
									"hidden" : 0,
									"midpoints" : [  ]
								}

							}
, 							{
								"patchline" : 								{
									"source" : [ "obj-67", 0 ],
									"destination" : [ "obj-62", 0 ],
									"hidden" : 0,
									"midpoints" : [  ]
								}

							}
, 							{
								"patchline" : 								{
									"source" : [ "obj-68", 0 ],
									"destination" : [ "obj-62", 0 ],
									"hidden" : 0,
									"midpoints" : [  ]
								}

							}
, 							{
								"patchline" : 								{
									"source" : [ "obj-69", 0 ],
									"destination" : [ "obj-62", 0 ],
									"hidden" : 0,
									"midpoints" : [  ]
								}

							}
, 							{
								"patchline" : 								{
									"source" : [ "obj-70", 0 ],
									"destination" : [ "obj-62", 0 ],
									"hidden" : 0,
									"midpoints" : [  ]
								}

							}
, 							{
								"patchline" : 								{
									"source" : [ "obj-71", 7 ],
									"destination" : [ "obj-63", 0 ],
									"hidden" : 0,
									"midpoints" : [  ]
								}

							}
, 							{
								"patchline" : 								{
									"source" : [ "obj-71", 6 ],
									"destination" : [ "obj-64", 0 ],
									"hidden" : 0,
									"midpoints" : [  ]
								}

							}
, 							{
								"patchline" : 								{
									"source" : [ "obj-71", 5 ],
									"destination" : [ "obj-65", 0 ],
									"hidden" : 0,
									"midpoints" : [  ]
								}

							}
, 							{
								"patchline" : 								{
									"source" : [ "obj-71", 4 ],
									"destination" : [ "obj-66", 0 ],
									"hidden" : 0,
									"midpoints" : [  ]
								}

							}
, 							{
								"patchline" : 								{
									"source" : [ "obj-71", 3 ],
									"destination" : [ "obj-67", 0 ],
									"hidden" : 0,
									"midpoints" : [  ]
								}

							}
, 							{
								"patchline" : 								{
									"source" : [ "obj-71", 2 ],
									"destination" : [ "obj-68", 0 ],
									"hidden" : 0,
									"midpoints" : [  ]
								}

							}
, 							{
								"patchline" : 								{
									"source" : [ "obj-71", 1 ],
									"destination" : [ "obj-69", 0 ],
									"hidden" : 0,
									"midpoints" : [  ]
								}

							}
, 							{
								"patchline" : 								{
									"source" : [ "obj-71", 0 ],
									"destination" : [ "obj-70", 0 ],
									"hidden" : 0,
									"midpoints" : [ 533.5, 407.0, 533.5, 407.0 ]
								}

							}
, 							{
								"patchline" : 								{
									"source" : [ "obj-61", 0 ],
									"destination" : [ "obj-60", 0 ],
									"hidden" : 0,
									"midpoints" : [ 256.5, 398.0, 256.5, 398.0 ]
								}

							}
, 							{
								"patchline" : 								{
									"source" : [ "obj-61", 1 ],
									"destination" : [ "obj-59", 0 ],
									"hidden" : 0,
									"midpoints" : [  ]
								}

							}
, 							{
								"patchline" : 								{
									"source" : [ "obj-61", 2 ],
									"destination" : [ "obj-58", 0 ],
									"hidden" : 0,
									"midpoints" : [  ]
								}

							}
, 							{
								"patchline" : 								{
									"source" : [ "obj-61", 3 ],
									"destination" : [ "obj-57", 0 ],
									"hidden" : 0,
									"midpoints" : [  ]
								}

							}
, 							{
								"patchline" : 								{
									"source" : [ "obj-61", 4 ],
									"destination" : [ "obj-56", 0 ],
									"hidden" : 0,
									"midpoints" : [  ]
								}

							}
, 							{
								"patchline" : 								{
									"source" : [ "obj-61", 5 ],
									"destination" : [ "obj-55", 0 ],
									"hidden" : 0,
									"midpoints" : [  ]
								}

							}
, 							{
								"patchline" : 								{
									"source" : [ "obj-61", 6 ],
									"destination" : [ "obj-54", 0 ],
									"hidden" : 0,
									"midpoints" : [  ]
								}

							}
, 							{
								"patchline" : 								{
									"source" : [ "obj-61", 7 ],
									"destination" : [ "obj-53", 0 ],
									"hidden" : 0,
									"midpoints" : [  ]
								}

							}
, 							{
								"patchline" : 								{
									"source" : [ "obj-60", 0 ],
									"destination" : [ "obj-52", 0 ],
									"hidden" : 0,
									"midpoints" : [  ]
								}

							}
, 							{
								"patchline" : 								{
									"source" : [ "obj-59", 0 ],
									"destination" : [ "obj-52", 0 ],
									"hidden" : 0,
									"midpoints" : [  ]
								}

							}
, 							{
								"patchline" : 								{
									"source" : [ "obj-58", 0 ],
									"destination" : [ "obj-52", 0 ],
									"hidden" : 0,
									"midpoints" : [  ]
								}

							}
, 							{
								"patchline" : 								{
									"source" : [ "obj-57", 0 ],
									"destination" : [ "obj-52", 0 ],
									"hidden" : 0,
									"midpoints" : [  ]
								}

							}
, 							{
								"patchline" : 								{
									"source" : [ "obj-56", 0 ],
									"destination" : [ "obj-52", 0 ],
									"hidden" : 0,
									"midpoints" : [  ]
								}

							}
, 							{
								"patchline" : 								{
									"source" : [ "obj-55", 0 ],
									"destination" : [ "obj-52", 0 ],
									"hidden" : 0,
									"midpoints" : [  ]
								}

							}
, 							{
								"patchline" : 								{
									"source" : [ "obj-54", 0 ],
									"destination" : [ "obj-52", 0 ],
									"hidden" : 0,
									"midpoints" : [  ]
								}

							}
, 							{
								"patchline" : 								{
									"source" : [ "obj-53", 0 ],
									"destination" : [ "obj-52", 0 ],
									"hidden" : 0,
									"midpoints" : [  ]
								}

							}
, 							{
								"patchline" : 								{
									"source" : [ "obj-45", 0 ],
									"destination" : [ "obj-51", 0 ],
									"hidden" : 0,
									"midpoints" : [  ]
								}

							}
, 							{
								"patchline" : 								{
									"source" : [ "obj-8", 0 ],
									"destination" : [ "obj-24", 0 ],
									"hidden" : 0,
									"midpoints" : [  ]
								}

							}
, 							{
								"patchline" : 								{
									"source" : [ "obj-42", 0 ],
									"destination" : [ "obj-45", 0 ],
									"hidden" : 0,
									"midpoints" : [  ]
								}

							}
, 							{
								"patchline" : 								{
									"source" : [ "obj-40", 0 ],
									"destination" : [ "obj-45", 0 ],
									"hidden" : 0,
									"midpoints" : [  ]
								}

							}
, 							{
								"patchline" : 								{
									"source" : [ "obj-38", 0 ],
									"destination" : [ "obj-45", 0 ],
									"hidden" : 0,
									"midpoints" : [  ]
								}

							}
, 							{
								"patchline" : 								{
									"source" : [ "obj-36", 0 ],
									"destination" : [ "obj-45", 0 ],
									"hidden" : 0,
									"midpoints" : [  ]
								}

							}
, 							{
								"patchline" : 								{
									"source" : [ "obj-32", 0 ],
									"destination" : [ "obj-45", 0 ],
									"hidden" : 0,
									"midpoints" : [  ]
								}

							}
, 							{
								"patchline" : 								{
									"source" : [ "obj-30", 0 ],
									"destination" : [ "obj-45", 0 ],
									"hidden" : 0,
									"midpoints" : [  ]
								}

							}
, 							{
								"patchline" : 								{
									"source" : [ "obj-28", 0 ],
									"destination" : [ "obj-45", 0 ],
									"hidden" : 0,
									"midpoints" : [  ]
								}

							}
, 							{
								"patchline" : 								{
									"source" : [ "obj-26", 0 ],
									"destination" : [ "obj-45", 0 ],
									"hidden" : 0,
									"midpoints" : [  ]
								}

							}
, 							{
								"patchline" : 								{
									"source" : [ "obj-24", 7 ],
									"destination" : [ "obj-42", 0 ],
									"hidden" : 0,
									"midpoints" : [  ]
								}

							}
, 							{
								"patchline" : 								{
									"source" : [ "obj-24", 6 ],
									"destination" : [ "obj-40", 0 ],
									"hidden" : 0,
									"midpoints" : [  ]
								}

							}
, 							{
								"patchline" : 								{
									"source" : [ "obj-24", 5 ],
									"destination" : [ "obj-38", 0 ],
									"hidden" : 0,
									"midpoints" : [  ]
								}

							}
, 							{
								"patchline" : 								{
									"source" : [ "obj-24", 4 ],
									"destination" : [ "obj-36", 0 ],
									"hidden" : 0,
									"midpoints" : [  ]
								}

							}
, 							{
								"patchline" : 								{
									"source" : [ "obj-24", 3 ],
									"destination" : [ "obj-32", 0 ],
									"hidden" : 0,
									"midpoints" : [  ]
								}

							}
, 							{
								"patchline" : 								{
									"source" : [ "obj-24", 2 ],
									"destination" : [ "obj-30", 0 ],
									"hidden" : 0,
									"midpoints" : [  ]
								}

							}
, 							{
								"patchline" : 								{
									"source" : [ "obj-24", 1 ],
									"destination" : [ "obj-28", 0 ],
									"hidden" : 0,
									"midpoints" : [  ]
								}

							}
, 							{
								"patchline" : 								{
									"source" : [ "obj-24", 0 ],
									"destination" : [ "obj-26", 0 ],
									"hidden" : 0,
									"midpoints" : [ 53.5, 326.0, 53.5, 326.0 ]
								}

							}
, 							{
								"patchline" : 								{
									"source" : [ "obj-17", 0 ],
									"destination" : [ "obj-2", 0 ],
									"hidden" : 0,
									"midpoints" : [ 554.5, 72.5, 419.5, 72.5 ]
								}

							}
, 							{
								"patchline" : 								{
									"source" : [ "obj-13", 0 ],
									"destination" : [ "obj-8", 0 ],
									"hidden" : 0,
									"midpoints" : [  ]
								}

							}
, 							{
								"patchline" : 								{
									"source" : [ "obj-12", 1 ],
									"destination" : [ "obj-13", 1 ],
									"hidden" : 0,
									"midpoints" : [  ]
								}

							}
, 							{
								"patchline" : 								{
									"source" : [ "obj-12", 0 ],
									"destination" : [ "obj-13", 0 ],
									"hidden" : 0,
									"midpoints" : [  ]
								}

							}
, 							{
								"patchline" : 								{
									"source" : [ "obj-11", 1 ],
									"destination" : [ "obj-12", 1 ],
									"hidden" : 0,
									"midpoints" : [  ]
								}

							}
, 							{
								"patchline" : 								{
									"source" : [ "obj-11", 0 ],
									"destination" : [ "obj-12", 0 ],
									"hidden" : 0,
									"midpoints" : [  ]
								}

							}
, 							{
								"patchline" : 								{
									"source" : [ "obj-2", 0 ],
									"destination" : [ "obj-11", 0 ],
									"hidden" : 0,
									"midpoints" : [  ]
								}

							}
, 							{
								"patchline" : 								{
									"source" : [ "obj-7", 0 ],
									"destination" : [ "obj-2", 1 ],
									"hidden" : 0,
									"midpoints" : [ 695.5, 88.5, 456.5, 88.5 ]
								}

							}
, 							{
								"patchline" : 								{
									"source" : [ "obj-1", 0 ],
									"destination" : [ "obj-2", 0 ],
									"hidden" : 0,
									"midpoints" : [  ]
								}

							}
 ]
					}
,
					"saved_object_attributes" : 					{
						"default_fontsize" : 12.0,
						"fontname" : "Arial",
						"globalpatchername" : "",
						"fontface" : 0,
						"fontsize" : 12.0,
						"default_fontface" : 0,
						"default_fontname" : "Arial"
					}

				}

			}
, 			{
				"box" : 				{
					"maxclass" : "newobj",
					"text" : "noteout",
					"id" : "obj-163",
					"fontname" : "Arial",
					"presentation_rect" : [ 1485.889771, 1962.680298, 0.0, 0.0 ],
					"numinlets" : 3,
					"patching_rect" : [ 1485.889771, 1962.680298, 158.90416, 20.0 ],
					"fontsize" : 12.0,
					"numoutlets" : 0
				}

			}
, 			{
				"box" : 				{
					"maxclass" : "message",
					"text" : "8",
					"id" : "obj-33",
					"fontname" : "Arial",
					"presentation_rect" : [ 2367.435303, 523.198486, 0.0, 0.0 ],
					"numinlets" : 2,
					"patching_rect" : [ 2297.344482, 514.198486, 32.5, 18.0 ],
					"fontsize" : 12.0,
					"numoutlets" : 1,
					"outlettype" : [ "" ]
				}

			}
, 			{
				"box" : 				{
					"maxclass" : "message",
					"text" : "7",
					"id" : "obj-34",
					"fontname" : "Arial",
					"presentation_rect" : [ 2227.435303, 523.198486, 0.0, 0.0 ],
					"numinlets" : 2,
					"patching_rect" : [ 2186.435303, 514.198486, 32.5, 18.0 ],
					"fontsize" : 12.0,
					"numoutlets" : 1,
					"outlettype" : [ "" ]
				}

			}
, 			{
				"box" : 				{
					"maxclass" : "message",
					"text" : "6",
					"id" : "obj-35",
					"fontname" : "Arial",
					"presentation_rect" : [ 2087.435303, 523.198486, 0.0, 0.0 ],
					"numinlets" : 2,
					"patching_rect" : [ 2046.435303, 514.198486, 32.5, 18.0 ],
					"fontsize" : 12.0,
					"numoutlets" : 1,
					"outlettype" : [ "" ]
				}

			}
, 			{
				"box" : 				{
					"maxclass" : "message",
					"text" : "5",
					"id" : "obj-36",
					"fontname" : "Arial",
					"presentation_rect" : [ 1949.25354, 523.198486, 0.0, 0.0 ],
					"numinlets" : 2,
					"patching_rect" : [ 1908.25354, 514.198486, 32.5, 18.0 ],
					"fontsize" : 12.0,
					"numoutlets" : 1,
					"outlettype" : [ "" ]
				}

			}
, 			{
				"box" : 				{
					"maxclass" : "message",
					"text" : "4",
					"id" : "obj-37",
					"fontname" : "Arial",
					"presentation_rect" : [ 1808.34436, 523.198486, 0.0, 0.0 ],
					"numinlets" : 2,
					"patching_rect" : [ 1767.34436, 514.198486, 32.5, 18.0 ],
					"fontsize" : 12.0,
					"numoutlets" : 1,
					"outlettype" : [ "" ]
				}

			}
, 			{
				"box" : 				{
					"maxclass" : "message",
					"text" : "3",
					"id" : "obj-38",
					"fontname" : "Arial",
					"presentation_rect" : [ 1675.617065, 523.198486, 0.0, 0.0 ],
					"numinlets" : 2,
					"patching_rect" : [ 1634.617065, 514.198486, 32.5, 18.0 ],
					"fontsize" : 12.0,
					"numoutlets" : 1,
					"outlettype" : [ "" ]
				}

			}
, 			{
				"box" : 				{
					"maxclass" : "message",
					"text" : "2",
					"id" : "obj-39",
					"fontname" : "Arial",
					"presentation_rect" : [ 1536.526245, 523.198486, 0.0, 0.0 ],
					"numinlets" : 2,
					"patching_rect" : [ 1495.526245, 514.198486, 32.5, 18.0 ],
					"fontsize" : 12.0,
					"numoutlets" : 1,
					"outlettype" : [ "" ]
				}

			}
, 			{
				"box" : 				{
					"maxclass" : "message",
					"text" : "1",
					"id" : "obj-40",
					"fontname" : "Arial",
					"presentation_rect" : [ 1396.526245, 523.198486, 0.0, 0.0 ],
					"numinlets" : 2,
					"patching_rect" : [ 1355.526245, 514.198486, 32.5, 18.0 ],
					"fontsize" : 12.0,
					"numoutlets" : 1,
					"outlettype" : [ "" ]
				}

			}
, 			{
				"box" : 				{
					"maxclass" : "bpatcher",
					"id" : "obj-48",
					"presentation_rect" : [ 1356.075928, 160.558502, 0.0, 0.0 ],
					"numinlets" : 1,
					"patching_rect" : [ 1356.075928, 160.558502, 985.16394, 347.61496 ],
					"args" : [  ],
					"numoutlets" : 8,
					"name" : "pongbongvertical.maxpat",
					"outlettype" : [ "bang", "bang", "bang", "bang", "bang", "bang", "bang", "bang" ]
				}

			}
, 			{
				"box" : 				{
					"maxclass" : "message",
					"text" : "8",
					"id" : "obj-30",
					"fontname" : "Arial",
					"numinlets" : 2,
					"patching_rect" : [ 1189.636353, 507.366943, 32.5, 18.0 ],
					"fontsize" : 12.0,
					"numoutlets" : 1,
					"outlettype" : [ "" ]
				}

			}
, 			{
				"box" : 				{
					"maxclass" : "message",
					"text" : "7",
					"id" : "obj-28",
					"fontname" : "Arial",
					"numinlets" : 2,
					"patching_rect" : [ 1049.636353, 507.366943, 32.5, 18.0 ],
					"fontsize" : 12.0,
					"numoutlets" : 1,
					"outlettype" : [ "" ]
				}

			}
, 			{
				"box" : 				{
					"maxclass" : "message",
					"text" : "6",
					"id" : "obj-26",
					"fontname" : "Arial",
					"numinlets" : 2,
					"patching_rect" : [ 909.636353, 507.366943, 32.5, 18.0 ],
					"fontsize" : 12.0,
					"numoutlets" : 1,
					"outlettype" : [ "" ]
				}

			}
, 			{
				"box" : 				{
					"maxclass" : "message",
					"text" : "5",
					"id" : "obj-24",
					"fontname" : "Arial",
					"numinlets" : 2,
					"patching_rect" : [ 771.454529, 507.366943, 32.5, 18.0 ],
					"fontsize" : 12.0,
					"numoutlets" : 1,
					"outlettype" : [ "" ]
				}

			}
, 			{
				"box" : 				{
					"maxclass" : "message",
					"text" : "4",
					"id" : "obj-18",
					"fontname" : "Arial",
					"numinlets" : 2,
					"patching_rect" : [ 630.54541, 507.366943, 32.5, 18.0 ],
					"fontsize" : 12.0,
					"numoutlets" : 1,
					"outlettype" : [ "" ]
				}

			}
, 			{
				"box" : 				{
					"maxclass" : "message",
					"text" : "3",
					"id" : "obj-14",
					"fontname" : "Arial",
					"numinlets" : 2,
					"patching_rect" : [ 497.818176, 507.366943, 32.5, 18.0 ],
					"fontsize" : 12.0,
					"numoutlets" : 1,
					"outlettype" : [ "" ]
				}

			}
, 			{
				"box" : 				{
					"maxclass" : "message",
					"text" : "2",
					"id" : "obj-12",
					"fontname" : "Arial",
					"numinlets" : 2,
					"patching_rect" : [ 358.727264, 507.366943, 32.5, 18.0 ],
					"fontsize" : 12.0,
					"numoutlets" : 1,
					"outlettype" : [ "" ]
				}

			}
, 			{
				"box" : 				{
					"maxclass" : "message",
					"text" : "1",
					"id" : "obj-10",
					"fontname" : "Arial",
					"numinlets" : 2,
					"patching_rect" : [ 218.727264, 507.366943, 32.5, 18.0 ],
					"fontsize" : 12.0,
					"numoutlets" : 1,
					"outlettype" : [ "" ]
				}

			}
, 			{
				"box" : 				{
					"maxclass" : "bpatcher",
					"id" : "obj-170",
					"numinlets" : 1,
					"patching_rect" : [ 222.276978, 155.726974, 985.16394, 347.61496 ],
					"args" : [  ],
					"numoutlets" : 8,
					"name" : "pongbong.maxpat",
					"outlettype" : [ "bang", "bang", "bang", "bang", "bang", "bang", "bang", "bang" ]
				}

			}
, 			{
				"box" : 				{
					"maxclass" : "newobj",
					"text" : "makenote 200",
					"id" : "obj-132",
					"fontname" : "Arial",
					"numinlets" : 3,
					"patching_rect" : [ 702.768982, 792.366943, 88.818184, 20.0 ],
					"fontsize" : 12.0,
					"numoutlets" : 2,
					"outlettype" : [ "float", "float" ]
				}

			}
, 			{
				"box" : 				{
					"maxclass" : "newobj",
					"text" : "noteout",
					"id" : "obj-131",
					"fontname" : "Arial",
					"numinlets" : 3,
					"patching_rect" : [ 703.479919, 820.096497, 158.90416, 20.0 ],
					"fontsize" : 12.0,
					"numoutlets" : 0
				}

			}
, 			{
				"box" : 				{
					"maxclass" : "toggle",
					"id" : "obj-124",
					"numinlets" : 1,
					"patching_rect" : [ 1254.005859, 26.695526, 20.0, 20.0 ],
					"numoutlets" : 1,
					"outlettype" : [ "int" ]
				}

			}
, 			{
				"box" : 				{
					"maxclass" : "newobj",
					"text" : "tempo 120",
					"id" : "obj-122",
					"fontname" : "Arial",
					"numinlets" : 4,
					"patching_rect" : [ 1254.336792, 51.695526, 67.0, 20.0 ],
					"fontsize" : 12.0,
					"numoutlets" : 1,
					"outlettype" : [ "int" ]
				}

			}
 ],
		"lines" : [ 			{
				"patchline" : 				{
					"source" : [ "obj-122", 0 ],
					"destination" : [ "obj-48", 0 ],
					"hidden" : 0,
					"midpoints" : [  ]
				}

			}
, 			{
				"patchline" : 				{
					"source" : [ "obj-48", 7 ],
					"destination" : [ "obj-33", 0 ],
					"hidden" : 0,
					"midpoints" : [  ]
				}

			}
, 			{
				"patchline" : 				{
					"source" : [ "obj-48", 6 ],
					"destination" : [ "obj-34", 0 ],
					"hidden" : 0,
					"midpoints" : [  ]
				}

			}
, 			{
				"patchline" : 				{
					"source" : [ "obj-48", 5 ],
					"destination" : [ "obj-35", 0 ],
					"hidden" : 0,
					"midpoints" : [  ]
				}

			}
, 			{
				"patchline" : 				{
					"source" : [ "obj-48", 4 ],
					"destination" : [ "obj-36", 0 ],
					"hidden" : 0,
					"midpoints" : [  ]
				}

			}
, 			{
				"patchline" : 				{
					"source" : [ "obj-48", 3 ],
					"destination" : [ "obj-37", 0 ],
					"hidden" : 0,
					"midpoints" : [  ]
				}

			}
, 			{
				"patchline" : 				{
					"source" : [ "obj-48", 2 ],
					"destination" : [ "obj-38", 0 ],
					"hidden" : 0,
					"midpoints" : [  ]
				}

			}
, 			{
				"patchline" : 				{
					"source" : [ "obj-48", 1 ],
					"destination" : [ "obj-39", 0 ],
					"hidden" : 0,
					"midpoints" : [  ]
				}

			}
, 			{
				"patchline" : 				{
					"source" : [ "obj-48", 0 ],
					"destination" : [ "obj-40", 0 ],
					"hidden" : 0,
					"midpoints" : [  ]
				}

			}
, 			{
				"patchline" : 				{
					"source" : [ "obj-170", 7 ],
					"destination" : [ "obj-30", 0 ],
					"hidden" : 0,
					"midpoints" : [  ]
				}

			}
, 			{
				"patchline" : 				{
					"source" : [ "obj-170", 6 ],
					"destination" : [ "obj-28", 0 ],
					"hidden" : 0,
					"midpoints" : [  ]
				}

			}
, 			{
				"patchline" : 				{
					"source" : [ "obj-170", 5 ],
					"destination" : [ "obj-26", 0 ],
					"hidden" : 0,
					"midpoints" : [  ]
				}

			}
, 			{
				"patchline" : 				{
					"source" : [ "obj-170", 4 ],
					"destination" : [ "obj-24", 0 ],
					"hidden" : 0,
					"midpoints" : [  ]
				}

			}
, 			{
				"patchline" : 				{
					"source" : [ "obj-170", 3 ],
					"destination" : [ "obj-18", 0 ],
					"hidden" : 0,
					"midpoints" : [  ]
				}

			}
, 			{
				"patchline" : 				{
					"source" : [ "obj-170", 2 ],
					"destination" : [ "obj-14", 0 ],
					"hidden" : 0,
					"midpoints" : [  ]
				}

			}
, 			{
				"patchline" : 				{
					"source" : [ "obj-170", 1 ],
					"destination" : [ "obj-12", 0 ],
					"hidden" : 0,
					"midpoints" : [  ]
				}

			}
, 			{
				"patchline" : 				{
					"source" : [ "obj-170", 0 ],
					"destination" : [ "obj-10", 0 ],
					"hidden" : 0,
					"midpoints" : [  ]
				}

			}
, 			{
				"patchline" : 				{
					"source" : [ "obj-124", 0 ],
					"destination" : [ "obj-122", 0 ],
					"hidden" : 0,
					"midpoints" : [  ]
				}

			}
, 			{
				"patchline" : 				{
					"source" : [ "obj-132", 0 ],
					"destination" : [ "obj-131", 0 ],
					"hidden" : 0,
					"midpoints" : [  ]
				}

			}
, 			{
				"patchline" : 				{
					"source" : [ "obj-132", 1 ],
					"destination" : [ "obj-131", 1 ],
					"hidden" : 0,
					"midpoints" : [  ]
				}

			}
, 			{
				"patchline" : 				{
					"source" : [ "obj-122", 0 ],
					"destination" : [ "obj-170", 0 ],
					"hidden" : 0,
					"midpoints" : [ 1263.836792, 113.21125, 231.776978, 113.21125 ]
				}

			}
 ]
	}

}
